<svg viewBox="0 0 40 40" xmlns="http://www.w3.org/2000/svg" fill-rule="evenodd" clip-rule="evenodd" stroke-linejoin="round" stroke-miterlimit="1.414"><ellipse cx="58.359" cy="52.914" rx="57.256" ry="53.012" fill="#2084d8" transform="matrix(.3493 0 0 .37727 -.385 -.062)"/><path d="M11.9 20c0-1.71 1.39-3.1 3.1-3.1h4V15h-4c-2.76 0-5 2.24-5 5s2.24 5 5 5h4v-1.9h-4c-1.71 0-3.1-1.39-3.1-3.1zm4.1 1h8v-2h-8v2zm9-6h-4v1.9h4c1.71 0 3.1 1.39 3.1 3.1 0 1.71-1.39 3.1-3.1 3.1h-4V25h4c2.76 0 5-2.24 5-5s-2.24-5-5-5z" fill="#fff" fill-rule="nonzero"/></svg>